<svg width="204" height="25" viewBox="0 0 204 25" fill="none" xmlns="http://www.w3.org/2000/svg">
<path d="M200.577 6.72087C199.907 6.1765 199.237 5.77869 198.567 5.52745C197.897 5.25526 197.248 5.11917 196.62 5.11917C195.824 5.11917 195.175 5.3076 194.672 5.68448C194.17 6.06135 193.919 6.55337 193.919 7.16056C193.919 7.5793 194.044 7.92477 194.296 8.19695C194.547 8.46914 194.871 8.70992 195.269 8.91929C195.688 9.10773 196.148 9.27522 196.651 9.42178C197.174 9.56835 197.687 9.72538 198.19 9.89287C200.2 10.5629 201.665 11.4632 202.587 12.5938C203.529 13.7035 204 15.1586 204 16.9592C204 18.1736 203.791 19.2728 203.372 20.2568C202.974 21.2409 202.377 22.0889 201.582 22.8007C200.807 23.4916 199.844 24.0255 198.692 24.4024C197.562 24.8002 196.274 24.9991 194.829 24.9991C191.835 24.9991 189.061 24.1093 186.507 22.3296L189.145 17.3675C190.066 18.184 190.977 18.7912 191.877 19.189C192.778 19.5868 193.667 19.7857 194.547 19.7857C195.552 19.7857 196.295 19.5554 196.777 19.0948C197.279 18.6342 197.53 18.1108 197.53 17.5245C197.53 17.1686 197.468 16.865 197.342 16.6137C197.216 16.3416 197.007 16.1008 196.714 15.8914C196.421 15.6611 196.033 15.4517 195.552 15.2633C195.091 15.0749 194.526 14.8655 193.856 14.6352C193.06 14.3839 192.275 14.1117 191.5 13.8186C190.747 13.5046 190.066 13.0963 189.459 12.5938C188.873 12.0913 188.391 11.4632 188.014 10.7094C187.658 9.93475 187.48 8.96116 187.48 7.78868C187.48 6.61619 187.669 5.55885 188.046 4.61667C188.444 3.65356 188.988 2.837 189.679 2.16701C190.391 1.47608 191.249 0.942179 192.254 0.565307C193.28 0.188436 194.421 0 195.677 0C196.85 0 198.075 0.167498 199.352 0.502495C200.629 0.816555 201.854 1.28764 203.026 1.91576L200.577 6.72087Z" fill="black"/>
<path d="M182.989 6.72087C182.319 6.1765 181.649 5.77869 180.979 5.52745C180.309 5.25526 179.66 5.11917 179.031 5.11917C178.236 5.11917 177.587 5.3076 177.084 5.68448C176.582 6.06135 176.331 6.55337 176.331 7.16056C176.331 7.5793 176.456 7.92477 176.707 8.19695C176.959 8.46914 177.283 8.70992 177.681 8.91929C178.1 9.10773 178.56 9.27522 179.063 9.42178C179.586 9.56835 180.099 9.72538 180.602 9.89287C182.612 10.5629 184.077 11.4632 184.999 12.5938C185.941 13.7035 186.412 15.1586 186.412 16.9592C186.412 18.1736 186.203 19.2728 185.784 20.2568C185.386 21.2409 184.789 22.0889 183.994 22.8007C183.219 23.4916 182.256 24.0255 181.104 24.4024C179.974 24.8002 178.686 24.9991 177.241 24.9991C174.247 24.9991 171.473 24.1093 168.919 22.3296L171.557 17.3675C172.478 18.184 173.389 18.7912 174.289 19.189C175.189 19.5868 176.079 19.7857 176.959 19.7857C177.964 19.7857 178.707 19.5554 179.189 19.0948C179.691 18.6342 179.942 18.1108 179.942 17.5245C179.942 17.1686 179.879 16.865 179.754 16.6137C179.628 16.3416 179.419 16.1008 179.126 15.8914C178.833 15.6611 178.445 15.4517 177.964 15.2633C177.503 15.0749 176.938 14.8655 176.268 14.6352C175.472 14.3839 174.687 14.1117 173.912 13.8186C173.159 13.5046 172.478 13.0963 171.871 12.5938C171.285 12.0913 170.803 11.4632 170.426 10.7094C170.07 9.93475 169.892 8.96116 169.892 7.78868C169.892 6.61619 170.081 5.55885 170.458 4.61667C170.855 3.65356 171.4 2.837 172.091 2.16701C172.803 1.47608 173.661 0.942179 174.666 0.565307C175.692 0.188436 176.833 0 178.089 0C179.262 0 180.487 0.167498 181.764 0.502495C183.041 0.816555 184.266 1.28764 185.438 1.91576L182.989 6.72087Z" fill="black"/>
<path d="M168.26 5.87355H161.885V9.20258H167.852V14.416H161.885V19.1269H168.26V24.3402H155.729V0.660156H168.26V5.87355Z" fill="black"/>
<path d="M147.75 0.660156V19.1269H154.189V24.3402H141.595V0.660156H147.75Z" fill="black"/>
<path d="M139.995 5.87355H133.619V9.20258H139.587V14.416H133.619V19.1269H139.995V24.3402H127.464V0.660156H139.995V5.87355Z" fill="black"/>
<path d="M123.069 6.72087C122.399 6.1765 121.729 5.77869 121.059 5.52745C120.389 5.25526 119.74 5.11917 119.112 5.11917C118.316 5.11917 117.667 5.3076 117.165 5.68448C116.662 6.06135 116.411 6.55337 116.411 7.16056C116.411 7.5793 116.536 7.92477 116.788 8.19695C117.039 8.46914 117.363 8.70992 117.761 8.91929C118.18 9.10773 118.641 9.27522 119.143 9.42178C119.667 9.56835 120.18 9.72538 120.682 9.89287C122.692 10.5629 124.158 11.4632 125.079 12.5938C126.021 13.7035 126.492 15.1586 126.492 16.9592C126.492 18.1736 126.283 19.2728 125.864 20.2568C125.466 21.2409 124.87 22.0889 124.074 22.8007C123.299 23.4916 122.336 24.0255 121.185 24.4024C120.054 24.8002 118.766 24.9991 117.322 24.9991C114.328 24.9991 111.553 24.1093 108.999 22.3296L111.637 17.3675C112.558 18.184 113.469 18.7912 114.369 19.189C115.27 19.5868 116.16 19.7857 117.039 19.7857C118.044 19.7857 118.787 19.5554 119.269 19.0948C119.771 18.6342 120.023 18.1108 120.023 17.5245C120.023 17.1686 119.96 16.865 119.834 16.6137C119.708 16.3416 119.499 16.1008 119.206 15.8914C118.913 15.6611 118.526 15.4517 118.044 15.2633C117.583 15.0749 117.018 14.8655 116.348 14.6352C115.552 14.3839 114.767 14.1117 113.993 13.8186C113.239 13.5046 112.558 13.0963 111.951 12.5938C111.365 12.0913 110.883 11.4632 110.507 10.7094C110.151 9.93475 109.973 8.96116 109.973 7.78868C109.973 6.61619 110.161 5.55885 110.538 4.61667C110.936 3.65356 111.48 2.837 112.171 2.16701C112.883 1.47608 113.741 0.942179 114.746 0.565307C115.772 0.188436 116.913 0 118.17 0C119.342 0 120.567 0.167498 121.844 0.502495C123.121 0.816555 124.346 1.28764 125.519 1.91576L123.069 6.72087Z" fill="black"/>
<path d="M102.361 0.628906H108.756V17.3747C108.756 18.7752 108.536 19.91 108.097 20.779C107.667 21.6889 106.951 22.5119 105.95 23.2479C104.6 24.2294 102.959 24.7201 101.027 24.7201C98.8393 24.7201 97.0042 24.1782 95.5218 23.0946C93.6407 21.7144 92.7002 19.5062 92.7002 16.4699V0.628906H99.0949V15.9025C99.0949 16.9351 99.2176 17.666 99.4629 18.0954C99.7185 18.5248 100.143 18.7395 100.736 18.7395C101.349 18.7395 101.773 18.5401 102.009 18.1414C102.244 17.7222 102.361 16.9811 102.361 15.9178V0.628906Z" fill="black"/>
<path d="M86.3835 5.87355H80.0081V9.20258H85.9753V14.416H80.0081V19.1269H86.3835V24.3402H73.8525V0.660156H86.3835V5.87355Z" fill="black"/>
<path d="M60.6741 9.17117H66.1074V0.660156H72.263V24.3402H66.1074V13.9449H60.6741V24.3402H54.5186V0.660156H60.6741V9.17117Z" fill="black"/>
<path d="M48.9211 5.87355V24.3402H42.7656V5.87355H38.6514V0.660156H53.0353V5.87355H48.9211Z" fill="black"/>
<path d="M32.1946 5.87355H25.7249V9.20258H31.535V14.416H25.7249V24.3402H19.5693V0.660156H32.1946V5.87355Z" fill="black"/>
<path fill-rule="evenodd" clip-rule="evenodd" d="M15.8009 21.4613C17.4469 19.202 18.2699 16.2679 18.2699 12.6591C18.2699 8.88668 17.4622 5.88615 15.8469 3.65747C14.2317 1.42879 12.0592 0.314453 9.32957 0.314453C7.10089 0.314453 5.17379 1.13743 3.54829 2.78338C1.3605 5.00183 0.266602 8.20683 0.266602 12.3984C0.266602 16.7739 1.31449 20.0556 3.41027 22.2434C5.07667 23.9711 7.07533 24.835 9.40625 24.835C12.0336 24.835 14.1652 23.7104 15.8009 21.4613ZM11.8888 12.7153C11.8888 8.00796 11.0364 5.6543 9.33163 5.6543C8.47923 5.6543 7.79961 6.2722 7.29278 7.50801C6.79746 8.65395 6.5498 10.3391 6.5498 12.5636C6.5498 14.7544 6.78018 16.4564 7.24094 17.6698C7.71322 18.8719 8.36404 19.4729 9.1934 19.4729C10.0458 19.4729 10.7024 18.8775 11.1631 17.6866C11.6469 16.4957 11.8888 14.8386 11.8888 12.7153Z" fill="black"/>
</svg>
